<svg width="684" height="288" viewBox="0 0 684 288" fill="none" xmlns="http://www.w3.org/2000/svg">
<rect width="684" height="288" fill="white"/>
<path d="M107 85.4803C107 82.4238 107 80.8955 106.368 80.0828C105.817 79.3755 104.979 78.9513 104.084 78.9264C103.054 78.8977 101.822 79.8023 99.3588 81.6115L76.9588 98.0615C76.241 98.5887 75.882 98.8523 75.623 99.1887C75.3936 99.4867 75.2222 99.8251 75.1178 100.186C75 100.594 75 101.04 75 101.93V172.52C75 175.576 75 177.105 75.6324 177.917C76.1828 178.624 77.0206 179.049 77.9165 179.074C78.9458 179.102 80.1776 178.198 82.6412 176.389L105.041 159.939C105.759 159.411 106.118 159.148 106.377 158.811C106.606 158.513 106.778 158.175 106.882 157.814C107 157.406 107 156.96 107 156.07V85.4803Z" fill="#6691FF"/>
<path d="M251 65.4803C251 62.4238 251 60.8955 250.368 60.0828C249.817 59.3755 248.979 58.9513 248.084 58.9264C247.054 58.8977 245.822 59.8023 243.359 61.6115L220.959 78.0615C220.241 78.5887 219.882 78.8523 219.623 79.1887C219.394 79.4867 219.222 79.8251 219.118 80.1864C219 80.5943 219 81.0396 219 81.9303V152.52C219 155.576 219 157.105 219.632 157.917C220.183 158.624 221.021 159.049 221.916 159.074C222.946 159.102 224.178 158.198 226.641 156.389L249.041 139.939C249.759 139.411 250.118 139.148 250.377 138.811C250.606 138.513 250.778 138.175 250.882 137.814C251 137.406 251 136.96 251 136.07V65.4803Z" fill="#6691FF"/>
<path d="M173.086 116.621C175.559 118.418 176.795 119.316 177.824 119.282C178.72 119.253 179.556 118.824 180.103 118.114C180.731 117.298 180.723 115.77 180.707 112.714L180.565 84.9226C180.561 84.0319 180.559 83.5866 180.439 83.1793C180.332 82.8185 180.159 82.481 179.928 82.1842C179.668 81.8491 179.307 81.5873 178.587 81.0638L121.479 39.5724C119.006 37.7758 117.77 36.8775 116.741 36.9114C115.845 36.9409 115.009 37.3694 114.462 38.0796C113.834 38.8954 113.842 40.4237 113.858 43.4802L113.999 71.2712C114.004 72.1619 114.006 72.6072 114.126 73.0145C114.232 73.3753 114.406 73.7128 114.636 74.0096C114.897 74.3447 115.257 74.6065 115.978 75.13L173.086 116.621Z" fill="#5BEBAF"/>
<path d="M173.086 244.621C175.559 246.418 176.795 247.316 177.824 247.282C178.72 247.253 179.556 246.824 180.103 246.114C180.731 245.298 180.723 243.77 180.707 240.714L180.565 212.923C180.561 212.032 180.559 211.587 180.439 211.179C180.332 210.819 180.159 210.481 179.928 210.184C179.668 209.849 179.307 209.587 178.587 209.064L121.479 167.572C119.006 165.776 117.77 164.877 116.741 164.911C115.845 164.941 115.009 165.369 114.462 166.08C113.834 166.895 113.842 168.424 113.858 171.48L113.999 199.271C114.004 200.162 114.006 200.607 114.126 201.015C114.232 201.375 114.406 201.713 114.636 202.01C114.897 202.345 115.257 202.606 115.978 203.13L173.086 244.621Z" fill="#5BEBAF"/>
<path d="M215.086 211.621C217.559 213.418 218.795 214.316 219.824 214.282C220.72 214.253 221.556 213.824 222.103 213.114C222.731 212.298 222.723 210.77 222.707 207.714L222.565 179.923C222.561 179.032 222.559 178.587 222.439 178.179C222.332 177.819 222.159 177.481 221.928 177.184C221.668 176.849 221.307 176.587 220.587 176.064L163.479 134.572C161.006 132.776 159.77 131.877 158.741 131.911C157.845 131.941 157.009 132.369 156.462 133.08C155.834 133.895 155.842 135.424 155.858 138.48L155.999 166.271C156.004 167.162 156.006 167.607 156.126 168.015C156.232 168.375 156.406 168.713 156.636 169.01C156.897 169.345 157.257 169.606 157.978 170.13L215.086 211.621Z" fill="#FFA218"/>
<path d="M281.264 134V43.504H312.624C316.891 43.504 320.816 43.8453 324.4 44.528C327.984 45.2107 331.141 46.3627 333.872 47.984C336.603 49.6053 338.693 51.8667 340.144 54.768C341.68 57.6693 342.448 61.3387 342.448 65.776C342.448 70.8107 341.168 75.12 338.608 78.704C336.133 82.288 332.592 84.8907 327.984 86.512C334.043 87.3653 338.736 89.712 342.064 93.552C345.477 97.392 347.184 102.469 347.184 108.784C347.184 113.733 346.203 117.872 344.24 121.2C342.277 124.443 339.632 127.003 336.304 128.88C333.061 130.757 329.307 132.08 325.04 132.848C320.859 133.616 316.507 134 311.984 134H281.264ZM290.48 125.68H311.6C314.416 125.68 317.36 125.509 320.432 125.168C323.504 124.827 326.363 124.144 329.008 123.12C331.653 122.011 333.787 120.304 335.408 118C337.029 115.696 337.84 112.624 337.84 108.784C337.84 105.371 337.2 102.597 335.92 100.464C334.64 98.3307 332.891 96.6667 330.672 95.472C328.539 94.192 326.107 93.3387 323.376 92.912C320.731 92.4 318 92.144 315.184 92.144H290.48V125.68ZM290.48 83.952H309.04C312.197 83.952 315.227 83.6533 318.128 83.056C321.115 82.4587 323.76 81.4773 326.064 80.112C328.368 78.7467 330.16 76.9547 331.44 74.736C332.805 72.5173 333.488 69.744 333.488 66.416C333.573 62.1493 332.635 58.992 330.672 56.944C328.709 54.896 326.149 53.5307 322.992 52.848C319.835 52.1653 316.421 51.824 312.752 51.824H290.48V83.952ZM365.142 134V43.504H374.358V134H365.142ZM434.646 135.024C425.259 135.024 417.409 133.019 411.094 129.008C404.865 124.997 400.129 119.493 396.886 112.496C393.729 105.499 392.15 97.6053 392.15 88.816C392.15 79.9413 393.729 72.0053 396.886 65.008C400.129 58.0107 404.865 52.5067 411.094 48.496C417.409 44.4853 425.259 42.48 434.646 42.48C444.033 42.48 451.841 44.4853 458.07 48.496C464.299 52.5067 468.993 58.0107 472.15 65.008C475.393 72.0053 477.014 79.9413 477.014 88.816C477.014 97.6053 475.393 105.499 472.15 112.496C468.993 119.493 464.299 124.997 458.07 129.008C451.841 133.019 444.033 135.024 434.646 135.024ZM434.646 126.704C442.155 126.704 448.342 124.997 453.206 121.584C458.07 118.171 461.654 113.605 463.958 107.888C466.347 102.085 467.542 95.728 467.542 88.816C467.542 83.6107 466.859 78.704 465.494 74.096C464.214 69.488 462.209 65.4347 459.478 61.936C456.747 58.4373 453.291 55.7067 449.11 53.744C445.014 51.7813 440.193 50.8 434.646 50.8C427.222 50.8 421.035 52.5493 416.086 56.048C411.222 59.4613 407.553 64.0693 405.078 69.872C402.689 75.5893 401.494 81.904 401.494 88.816C401.494 95.6427 402.689 101.957 405.078 107.76C407.467 113.477 411.137 118.085 416.086 121.584C421.035 124.997 427.222 126.704 434.646 126.704Z" fill="black"/>
<path d="M305.968 250.024C301.36 250.024 297.136 249.512 293.296 248.488C289.456 247.379 286.085 245.587 283.184 243.112C280.283 240.637 278.021 237.395 276.4 233.384C274.779 229.288 273.925 224.296 273.84 218.408H292.144C292.315 220.797 292.784 223.101 293.552 225.32C294.32 227.539 295.6 229.373 297.392 230.824C299.269 232.275 301.957 233 305.456 233C308.699 233 311.173 232.36 312.88 231.08C314.587 229.8 315.739 228.093 316.336 225.96C317.019 223.741 317.36 221.352 317.36 218.792V158.376H335.792V216.872C335.792 222.163 335.195 226.856 334 230.952C332.805 235.048 330.971 238.504 328.496 241.32C326.107 244.136 323.035 246.312 319.28 247.848C315.525 249.299 311.088 250.024 305.968 250.024ZM394.03 250.024C384.729 250.024 376.707 248.061 369.966 244.136C363.31 240.211 358.19 234.792 354.606 227.88C351.107 220.883 349.358 212.861 349.358 203.816C349.358 194.6 351.15 186.493 354.734 179.496C358.403 172.499 363.609 167.08 370.35 163.24C377.091 159.315 385.113 157.352 394.414 157.352C403.63 157.352 411.566 159.272 418.222 163.112C424.878 166.952 429.998 172.328 433.582 179.24C437.251 186.152 439.086 194.216 439.086 203.432C439.086 212.477 437.251 220.541 433.582 227.624C429.998 234.621 424.835 240.125 418.094 244.136C411.438 248.061 403.417 250.024 394.03 250.024ZM394.286 232.872C400.43 232.872 405.422 231.464 409.262 228.648C413.102 225.832 415.875 222.205 417.582 217.768C419.374 213.331 420.27 208.68 420.27 203.816C420.27 200.232 419.758 196.691 418.734 193.192C417.795 189.693 416.302 186.536 414.254 183.72C412.206 180.904 409.518 178.685 406.19 177.064C402.862 175.357 398.851 174.504 394.158 174.504C388.099 174.504 383.15 175.912 379.31 178.728C375.47 181.459 372.611 185.043 370.734 189.48C368.942 193.917 368.046 198.653 368.046 203.688C368.046 208.723 368.942 213.459 370.734 217.896C372.611 222.333 375.47 225.96 379.31 228.776C383.235 231.507 388.227 232.872 394.286 232.872ZM453.222 249V158.376H492.902C497.083 158.376 500.881 158.803 504.294 159.656C507.793 160.424 510.822 161.704 513.382 163.496C515.942 165.288 517.905 167.677 519.27 170.664C520.721 173.651 521.446 177.448 521.446 182.056C521.446 185.811 520.593 189.309 518.886 192.552C517.179 195.795 514.662 198.269 511.334 199.976C515.771 201.427 519.27 203.944 521.83 207.528C524.39 211.027 525.67 215.677 525.67 221.48C525.67 226.685 524.689 231.08 522.726 234.664C520.763 238.163 518.075 240.979 514.662 243.112C511.249 245.245 507.281 246.781 502.758 247.72C498.235 248.573 493.414 249 488.294 249H453.222ZM471.526 232.104H490.47C492.774 232.104 494.907 231.933 496.87 231.592C498.918 231.251 500.71 230.696 502.246 229.928C503.782 229.075 504.977 227.923 505.83 226.472C506.769 225.021 507.238 223.229 507.238 221.096C507.238 219.133 506.854 217.512 506.086 216.232C505.403 214.867 504.379 213.757 503.014 212.904C501.734 212.051 500.198 211.453 498.406 211.112C496.699 210.771 494.779 210.6 492.646 210.6H471.526V232.104ZM471.526 195.368H488.294C490.598 195.368 492.689 195.155 494.566 194.728C496.443 194.301 498.022 193.619 499.302 192.68C500.582 191.741 501.563 190.589 502.246 189.224C502.929 187.773 503.27 186.109 503.27 184.232C503.355 181.672 502.801 179.795 501.606 178.6C500.411 177.32 498.79 176.467 496.742 176.04C494.694 175.528 492.39 175.272 489.83 175.272H471.526V195.368ZM574.151 250.024C567.836 250.024 561.948 249.043 556.487 247.08C551.111 245.117 546.588 242.003 542.919 237.736C539.335 233.469 537.074 227.965 536.135 221.224H554.823C555.591 224.125 556.999 226.472 559.047 228.264C561.095 229.971 563.527 231.208 566.343 231.976C569.244 232.744 572.274 233.128 575.431 233.128C577.82 233.128 580.167 232.829 582.471 232.232C584.775 231.635 586.652 230.611 588.103 229.16C589.639 227.709 590.407 225.747 590.407 223.272C590.407 221.395 589.98 219.859 589.127 218.664C588.359 217.469 587.207 216.531 585.671 215.848C584.22 215.08 582.428 214.397 580.295 213.8C578.503 213.288 576.626 212.861 574.663 212.52C572.786 212.179 570.908 211.752 569.031 211.24C567.239 210.728 565.49 210.131 563.783 209.448C560.54 208.595 557.426 207.571 554.439 206.376C551.452 205.096 548.807 203.517 546.503 201.64C544.199 199.677 542.364 197.245 540.999 194.344C539.719 191.443 539.079 187.944 539.079 183.848C539.079 179.411 539.804 175.656 541.255 172.584C542.791 169.512 544.796 166.995 547.271 165.032C549.831 162.984 552.647 161.405 555.719 160.296C558.876 159.187 562.034 158.419 565.191 157.992C568.348 157.565 571.335 157.352 574.151 157.352C580.039 157.352 585.33 158.376 590.023 160.424C594.716 162.472 598.556 165.544 601.543 169.64C604.53 173.736 606.236 178.899 606.663 185.128H588.871C588.53 182.568 587.591 180.477 586.055 178.856C584.519 177.235 582.556 176.04 580.167 175.272C577.863 174.504 575.26 174.12 572.359 174.12C570.482 174.12 568.647 174.291 566.855 174.632C565.063 174.973 563.442 175.528 561.991 176.296C560.626 176.979 559.516 177.917 558.663 179.112C557.895 180.307 557.511 181.757 557.511 183.464C557.511 185.171 557.98 186.664 558.919 187.944C559.858 189.139 561.223 190.205 563.015 191.144C564.892 191.997 567.068 192.808 569.543 193.576C572.103 194.429 574.791 195.112 577.607 195.624C580.423 196.136 583.111 196.819 585.671 197.672C588.914 198.525 591.943 199.549 594.759 200.744C597.575 201.853 600.05 203.304 602.183 205.096C604.316 206.803 605.98 209.021 607.175 211.752C608.37 214.397 608.967 217.683 608.967 221.608C608.967 226.813 607.986 231.251 606.023 234.92C604.146 238.504 601.543 241.405 598.215 243.624C594.972 245.843 591.26 247.464 587.079 248.488C582.898 249.512 578.588 250.024 574.151 250.024Z" fill="black"/>
</svg>
